<svg width="46" height="61" viewBox="0 0 46 61" fill="none" xmlns="http://www.w3.org/2000/svg">
<rect width="46" height="61" rx="5" fill="#37C367"/>
<rect width="46" height="61" rx="5" fill="url(#paint0_linear_1147_821)"/>
<path d="M25.0195 37.4688L29.6367 41.125L27.4219 43.0469L22.875 39.3906L25.0195 37.4688ZM29.7539 31.0703V31.8789C29.7539 33.1758 29.5781 34.3398 29.2266 35.3711C28.8828 36.4023 28.3867 37.2812 27.7383 38.0078C27.0898 38.7266 26.3242 39.2773 25.4414 39.6602C24.5586 40.043 23.5781 40.2344 22.5 40.2344C21.4297 40.2344 20.4492 40.043 19.5586 39.6602C18.668 39.2773 17.8984 38.7266 17.25 38.0078C16.6016 37.2812 16.0977 36.4023 15.7383 35.3711C15.3867 34.3398 15.2109 33.1758 15.2109 31.8789V31.0703C15.2109 29.7656 15.3867 28.6016 15.7383 27.5781C16.0977 26.5469 16.5977 25.668 17.2383 24.9414C17.8789 24.2148 18.6445 23.6602 19.5352 23.2773C20.4258 22.8945 21.4062 22.7031 22.4766 22.7031C23.5547 22.7031 24.5352 22.8945 25.418 23.2773C26.3086 23.6602 27.0781 24.2148 27.7266 24.9414C28.375 25.668 28.875 26.5469 29.2266 27.5781C29.5781 28.6016 29.7539 29.7656 29.7539 31.0703ZM26.2031 31.8789V31.0469C26.2031 30.1406 26.1172 29.3438 25.9453 28.6562C25.7812 27.9688 25.5391 27.3906 25.2188 26.9219C24.9062 26.4531 24.5195 26.1016 24.0586 25.8672C23.5977 25.625 23.0703 25.5039 22.4766 25.5039C21.8828 25.5039 21.3555 25.625 20.8945 25.8672C20.4336 26.1016 20.0469 26.4531 19.7344 26.9219C19.4219 27.3906 19.1836 27.9688 19.0195 28.6562C18.8555 29.3438 18.7734 30.1406 18.7734 31.0469V31.8789C18.7734 32.7773 18.8555 33.5742 19.0195 34.2695C19.1836 34.957 19.4219 35.5391 19.7344 36.0156C20.0547 36.4844 20.4453 36.8398 20.9062 37.082C21.375 37.3242 21.9062 37.4453 22.5 37.4453C23.0938 37.4453 23.6172 37.3242 24.0703 37.082C24.5312 36.8398 24.918 36.4844 25.2305 36.0156C25.5508 35.5391 25.793 34.957 25.957 34.2695C26.1211 33.5742 26.2031 32.7773 26.2031 31.8789Z" fill="white"/>
<defs>
<linearGradient id="paint0_linear_1147_821" x1="23" y1="0" x2="23" y2="43" gradientUnits="userSpaceOnUse">
<stop stop-color="#348D52"/>
<stop offset="1" stop-color="#348D52" stop-opacity="0"/>
</linearGradient>
</defs>
</svg>
